<svg xmlns="http://www.w3.org/2000/svg"  viewBox="0 0 50 50" width="50px" height="50px" baseProfile="basic"><path fill="#0a0909" d="M46,13.99V30H29.8L43.4,7.27C45.02,9.05,46,11.41,46,13.99z"/><path fill="#0a0909" d="M28.49,45.99H14c-2.82,0-5.38-1.18-7.2-3.07l9.88-16.83L28.49,45.99z"/><path fill="#0a0909" d="M27.33,3.99L5.48,41.21C4.54,39.69,4,37.9,4,35.99v-22c0-5.51,4.49-10,10-10H27.33z"/><path fill="#0a0909" d="M46,32v3.99c0,5.51-4.49,10-10,10h-5.18L22.53,32H46z"/><g><polygon fill="#0a0909" points="26.43,17 22.01,17 24.19,13.3 24.23,13.37"/><path fill="#0a0909" d="M41.89,5.91l-9.88,16.44l-6.63-10.92l-0.05-0.08l4.32-7.36H36C38.2,3.99,40.24,4.7,41.89,5.91z"/><polygon fill="#0a0909" points="30.85,24.28 27.41,30 21.34,30 17.85,24.1 20.84,19 27.65,19"/></g></svg>